<?xml version="1.0" encoding="UTF-8"?>
<svg version="1.1" xmlns="http://www.w3.org/2000/svg" width="1024" height="315">
<path d="M0 0 C337.92 0 675.84 0 1024 0 C1024 103.95 1024 207.9 1024 315 C686.08 315 348.16 315 0 315 C0 211.05 0 107.1 0 0 Z " fill="#FDFDFD" transform="translate(0,0)"/>
<path d="M0 0 C0.042721 1.66611905 0.04063832 3.33382885 0 5 C-1 6 -1 6 -2.84765625 6.09765625 C-4.8984375 6.06510417 -6.94921875 6.03255208 -9 6 C-9 6.66 -9 7.32 -9 8 C-8.37351563 7.98839844 -7.74703125 7.97679688 -7.1015625 7.96484375 C-6.28429687 7.95582031 -5.46703125 7.94679688 -4.625 7.9375 C-3.81289062 7.92589844 -3.00078125 7.91429688 -2.1640625 7.90234375 C0 8 0 8 2 9 C3.14289156 14.47006588 3.12083769 19.86849475 3.0625 25.4375 C3.05798828 26.26443359 3.05347656 27.09136719 3.04882812 27.94335938 C3.03715811 29.96227146 3.01922718 31.98114574 3 34 C2.01 34 1.02 34 0 34 C0.74359673 39.55053286 0.74359673 39.55053286 2 45 C2.66 45 3.32 45 4 45 C5.42002108 51.7831364 6.22731216 58.06697907 6 65 C6.66 65 7.32 65 8 65 C8.02894547 68.45831586 8.04678 71.91660072 8.0625 75.375 C8.07087891 76.35984375 8.07925781 77.3446875 8.08789062 78.359375 C8.09111328 79.30039063 8.09433594 80.24140625 8.09765625 81.2109375 C8.10289307 82.08024902 8.10812988 82.94956055 8.11352539 83.84521484 C8 86 8 86 7 88 C8.485 88.495 8.485 88.495 10 89 C11.38403895 101.06091089 12.30535107 112.8538131 12 125 C10.515 125.495 10.515 125.495 9 126 C9.495 128.97 9.495 128.97 10 132 C8.3603125 132.4021875 8.3603125 132.4021875 6.6875 132.8125 C2.66943394 134.07108677 2.66943394 134.07108677 0 137 C-0.33 137.99 -0.66 138.98 -1 140 C-1.66 140 -2.32 140 -3 140 C-3 140.99 -3 141.98 -3 143 C-2.50371094 142.566875 -2.00742188 142.13375 -1.49609375 141.6875 C2.06413274 138.76906007 4.22807961 137.11205296 8.875 136.4375 C9.90625 136.623125 10.9375 136.80875 12 137 C13.9756562 139.96348429 14.26376859 140.68020373 14.4140625 144.01171875 C14.45273438 144.76904297 14.49140625 145.52636719 14.53125 146.30664062 C14.5621875 147.09232422 14.593125 147.87800781 14.625 148.6875 C14.66367188 149.48478516 14.70234375 150.28207031 14.7421875 151.10351562 C14.83632494 153.06863475 14.91924632 155.0342854 15 157 C14.01 157 13.02 157 12 157 C12.474375 157.556875 12.94875 158.11375 13.4375 158.6875 C16.18053698 162.74719472 16.14432887 167.16344718 16.31640625 171.95703125 C16.35830078 173.06884766 16.40019531 174.18066406 16.44335938 175.32617188 C16.48267578 176.47666016 16.52199219 177.62714844 16.5625 178.8125 C16.60568359 179.98232422 16.64886719 181.15214844 16.69335938 182.35742188 C16.79918279 185.23817031 16.90126825 188.11900123 17 191 C13.55971183 190.2337848 11.33232179 189.03764106 8.4375 187 C5.87124752 185.19972845 3.99469411 183.99823137 1 183 C-0.99396257 180.33916031 -3 177.38757675 -3 174 C-5.31 173.67 -7.62 173.34 -10 173 C-10 173.99 -10 174.98 -10 176 C-9.1028125 176.37125 -9.1028125 176.37125 -8.1875 176.75 C-4.24440399 179.00319772 -3.17364264 181.45165483 -1.8125 185.75 C-1.544375 186.8225 -1.27625 187.895 -1 189 C-0.01 188.67 0.98 188.34 2 188 C2.33 187.34 2.66 186.68 3 186 C3.66 186 4.32 186 5 186 C5.33 186.66 5.66 187.32 6 188 C8.31511139 189.38906683 10.63265563 190.70702999 13 192 C14.31406127 192.74726115 15.62664608 193.49712667 16.9375 194.25 C17.948125 194.8275 18.95875 195.405 20 196 C20.02698422 198.43757413 20.04683099 200.87484915 20.0625 203.3125 C20.07087891 204.00279297 20.07925781 204.69308594 20.08789062 205.40429688 C20.10307906 208.5483025 20.00193327 210.99420019 19 214 C4.39950397 212.70217813 -6.90948634 204.56329794 -18.01953125 195.578125 C-19.94563007 193.99914839 -19.94563007 193.99914839 -21.88671875 192.734375 C-24.16114134 191.14386969 -25.78329448 189.78202428 -26.5390625 187.0546875 C-26.6875 184.9375 -26.6875 184.9375 -26 181 C-23.5625 178.625 -23.5625 178.625 -21 177 C-20.67 176.34 -20.34 175.68 -20 175 C-17.6859378 174.26924352 -15.35171131 173.59861742 -13 173 C-13 172.34 -13 171.68 -13 171 C-15.97 171 -18.94 171 -22 171 C-21.67 170.01 -21.34 169.02 -21 168 C-20.8731236 165.73032225 -20.77217256 163.45914374 -20.6875 161.1875 C-20.31942964 155.42897993 -19.8218878 152.28514692 -16 148 C-15.34 147.01 -14.68 146.02 -14 145 C-13.01 145 -12.02 145 -11 145 C-11 147.64 -11 150.28 -11 153 C-10.34 153 -9.68 153 -9 153 C-9.11347619 151.02013918 -9.2410935 149.04108402 -9.375 147.0625 C-9.47941406 145.40927734 -9.47941406 145.40927734 -9.5859375 143.72265625 C-9.72257812 142.82417969 -9.85921875 141.92570313 -10 141 C-10.66 140.67 -11.32 140.34 -12 140 C-12 139.01 -12 138.02 -12 137 C-16.69267989 141.0409188 -18.7650674 145.26908345 -21 151 C-23.64 151 -26.28 151 -29 151 C-28.67 152.32 -28.34 153.64 -28 155 C-27.34 155 -26.68 155 -26 155 C-26 155.99 -26 156.98 -26 158 C-25.01 158.33 -24.02 158.66 -23 159 C-23 161.97 -23 164.94 -23 168 C-23.66 168 -24.32 168 -25 168 C-26.25664978 165.09399739 -27 163.20395416 -27 160 C-28.175625 159.7834375 -28.175625 159.7834375 -29.375 159.5625 C-32 159 -32 159 -34 158 C-32.48134786 162.29888613 -32.48134786 162.29888613 -30 166 C-29.95907063 168.33297433 -29.95758277 170.66705225 -30 173 C-30.99 173 -31.98 173 -33 173 C-33.99 174.98 -33.99 174.98 -35 177 C-35.66 177 -36.32 177 -37 177 C-37.4021875 176.071875 -37.4021875 176.071875 -37.8125 175.125 C-38.95556848 172.7004767 -38.95556848 172.7004767 -42 171 C-42 170.01 -42 169.02 -42 168 C-39.69 168.33 -37.38 168.66 -35 169 C-35 167.35 -35 165.7 -35 164 C-39.455 164.99 -39.455 164.99 -44 166 C-44.0825 165.21625 -44.165 164.4325 -44.25 163.625 C-44.4975 162.75875 -44.745 161.8925 -45 161 C-45.8971875 160.63648438 -45.8971875 160.63648438 -46.8125 160.265625 C-50.07252483 158.37946778 -51.19093203 155.41041792 -52.75 152.125 C-53.06582031 151.49980469 -53.38164063 150.87460938 -53.70703125 150.23046875 C-55.36494951 146.83568374 -56 144.85178044 -56 141 C-56.66 141 -57.32 141 -58 141 C-58.495 136.05 -58.495 136.05 -59 131 C-59.66 131 -60.32 131 -61 131 C-62.65659301 125.20439207 -63.29693395 120.05866095 -63.265625 114.046875 C-63.26753845 113.22423157 -63.2694519 112.40158813 -63.27142334 111.55401611 C-63.27277497 109.82962739 -63.26915059 108.10522813 -63.26074219 106.38085938 C-63.24997247 103.74325872 -63.2607003 101.10633055 -63.2734375 98.46875 C-63.2721168 96.78645684 -63.26955626 95.10416409 -63.265625 93.421875 C-63.26967346 92.63641296 -63.27372192 91.85095093 -63.27789307 91.04168701 C-63.24456053 87.15732815 -63.04942419 84.32905058 -61 81 C-60.35483647 78.52358629 -59.75580277 76.05604315 -59.1875 73.5625 C-57.0427367 64.59704002 -54.72481231 55.38074976 -49 48 C-48.62875 47.01 -48.2575 46.02 -47.875 45 C-43.80764873 35.10701541 -35.26272275 26.66543587 -28 19 C-27.31035156 18.26265625 -26.62070313 17.5253125 -25.91015625 16.765625 C-23.63851751 14.66586894 -22.03230084 14.33692232 -19 14 C-19 13.01 -19 12.02 -19 11 C-16 9 -16 9 -13 9 C-13 8.01 -13 7.02 -13 6 C-10.91796875 4.39453125 -10.91796875 4.39453125 -8.1875 2.8125 C-7.29417969 2.28269531 -6.40085938 1.75289062 -5.48046875 1.20703125 C-3 0 -3 0 0 0 Z " fill="#148D83" transform="translate(128,61)"/>
<path d="M0 0 C20.10507909 4.02101582 20.10507909 4.02101582 25 9 C25.39430682 11.6110595 25.53815277 13.79696921 25.49609375 16.40625 C25.49754898 17.12735962 25.49900421 17.84846924 25.50050354 18.59143066 C25.49884512 20.11454309 25.48728985 21.63767237 25.46655273 23.16064453 C25.43760016 25.49193501 25.44594196 27.82095092 25.45898438 30.15234375 C25.45274662 31.63282355 25.44435539 33.11329617 25.43359375 34.59375 C25.43652939 35.2906897 25.43946503 35.98762939 25.44248962 36.70568848 C25.38646518 39.58008256 25.30520046 41.55279539 23.66040039 43.96289062 C22 45 22 45 19 45 C19 38.4 19 31.8 19 25 C18.34 25 17.68 25 17 25 C17 28.63 17 32.26 17 36 C13.7 36.66 10.4 37.32 7 38 C7 39.32 7 40.64 7 42 C10.34373475 41.44271087 13.03312999 40.64826111 16 39 C16 40.32 16 41.64 16 43 C15.34 43 14.68 43 14 43 C14 43.99 14 44.98 14 46 C15.485 46.495 15.485 46.495 17 47 C16.195625 47.268125 15.39125 47.53625 14.5625 47.8125 C13.2940625 48.4003125 13.2940625 48.4003125 12 49 C11.67 49.99 11.34 50.98 11 52 C9.0625 54.1875 9.0625 54.1875 7 56 C6.34 56 5.68 56 5 56 C5 56.66 5 57.32 5 58 C3.89435696 59.14019438 2.77803112 60.27126394 1.62109375 61.359375 C-0.10896334 63.05876732 -0.10896334 63.05876732 -1.90234375 65.328125 C-2.57394531 66.14796875 -3.24554688 66.9678125 -3.9375 67.8125 C-4.56527344 68.60269531 -5.19304687 69.39289063 -5.83984375 70.20703125 C-8 72 -8 72 -14 72 C-14 65.07 -14 58.14 -14 51 C-13.34 51 -12.68 51 -12 51 C-12 46.38 -12 41.76 -12 37 C-11.01 37 -10.02 37 -9 37 C-9.03480469 35.98421875 -9.06960937 34.9684375 -9.10546875 33.921875 C-9.3108502 25.14181781 -8.69112948 17.45783552 -6 9 C-1.50437637 7.72100656 -1.50437637 7.72100656 0.80078125 8.99609375 C2.20052083 10.33072917 3.60026042 11.66536458 5 13 C4.72285156 12.48050781 4.44570312 11.96101563 4.16015625 11.42578125 C2.19266733 7.63783995 0.53662611 4.29300887 0 0 Z " fill="#138C82" transform="translate(214,51)"/>
</svg>
